<?xml version="1.0" encoding="utf-8"?>
<!-- Generator: Adobe Illustrator 25.2.1, SVG Export Plug-In . SVG Version: 6.00 Build 0)  -->
<svg version="1.1" id="Layer_1" xmlns="http://www.w3.org/2000/svg" xmlns:xlink="http://www.w3.org/1999/xlink" x="0px" y="0px"
	 viewBox="0 0 200 46" xml:space="preserve">
<style type="text/css">
	.st0{fill:#1C325F;}
</style>
<g>
	<g>
		<path class="st0" d="M58.7,30.33c0,0.32-0.11,0.6-0.34,0.83c-0.23,0.23-0.51,0.34-0.83,0.34c-0.32,0-0.6-0.11-0.83-0.34
			c-0.23-0.23-0.34-0.51-0.34-0.83V16.27c0-0.32,0.11-0.6,0.34-0.83c0.23-0.23,0.51-0.34,0.83-0.34c0.32,0,0.6,0.11,0.83,0.34
			c0.23,0.23,0.34,0.51,0.34,0.83v0.31c1.16-0.99,2.53-1.48,4.1-1.48c1.78,0,3.29,0.63,4.55,1.89c0.26,0.26,0.5,0.54,0.72,0.83
			c0.21-0.29,0.45-0.57,0.72-0.83c1.26-1.26,2.78-1.89,4.55-1.89c1.78,0,3.3,0.63,4.55,1.89s1.89,2.78,1.89,4.55v8.79
			c0,0.32-0.12,0.6-0.34,0.83c-0.23,0.23-0.5,0.34-0.83,0.34s-0.6-0.11-0.83-0.34c-0.23-0.23-0.34-0.51-0.34-0.83v-8.79
			c0-1.13-0.4-2.1-1.2-2.9c-0.8-0.8-1.77-1.2-2.9-1.2c-1.13,0-2.1,0.4-2.9,1.2c-0.8,0.8-1.2,1.77-1.2,2.9v8.79
			c0,0.32-0.11,0.6-0.34,0.83c-0.23,0.23-0.51,0.34-0.83,0.34s-0.6-0.11-0.83-0.34c-0.23-0.23-0.34-0.51-0.34-0.83v-8.79
			c0-1.13-0.4-2.1-1.2-2.9c-0.8-0.8-1.77-1.2-2.9-1.2c-1.13,0-2.1,0.4-2.9,1.2c-0.8,0.8-1.2,1.77-1.2,2.9V30.33z"/>
		<path class="st0" d="M94.84,27.52c0.32,0,0.6,0.11,0.83,0.34c0.23,0.23,0.34,0.51,0.34,0.83c0,0.32-0.11,0.6-0.34,0.83
			c-1.51,1.32-3.29,1.98-5.34,1.98c-2.26,0-4.2-0.8-5.8-2.4c-1.6-1.6-2.4-3.53-2.4-5.8c0-2.26,0.8-4.2,2.4-5.8
			c1.6-1.6,3.53-2.4,5.8-2.4c2.26,0,4.2,0.8,5.8,2.4c1.6,1.6,2.4,3.53,2.4,5.8c0,0.32-0.11,0.6-0.34,0.83
			c-0.23,0.23-0.51,0.34-0.83,0.34H84.58c0.21,1.12,0.75,2.11,1.61,2.97c1.14,1.14,2.52,1.71,4.14,1.71c1.46,0,2.72-0.46,3.78-1.39
			C94.33,27.6,94.57,27.52,94.84,27.52z M96.09,22.13c-0.21-1.12-0.75-2.11-1.61-2.97c-1.14-1.14-2.52-1.71-4.14-1.71
			c-1.62,0-3,0.57-4.14,1.71c-0.86,0.86-1.4,1.85-1.61,2.97H96.09z"/>
		<path class="st0" d="M114.94,9.21c0-0.32,0.11-0.6,0.34-0.83c0.23-0.23,0.51-0.34,0.83-0.34s0.6,0.11,0.83,0.34
			c0.23,0.23,0.34,0.51,0.34,0.83V23.3c0,2.26-0.8,4.2-2.4,5.8c-1.6,1.6-3.53,2.4-5.8,2.4c-2.26,0-4.2-0.8-5.8-2.4
			c-1.6-1.6-2.4-3.53-2.4-5.8c0-2.26,0.8-4.2,2.4-5.8c1.6-1.6,3.53-2.4,5.8-2.4c2.26,0,4.2,0.8,5.8,2.4
			c0.02,0.02,0.04,0.04,0.06,0.06V9.21z M114.94,23.3c0-1.62-0.57-3-1.71-4.14c-1.14-1.14-2.52-1.71-4.14-1.71
			c-1.62,0-3,0.57-4.14,1.71c-1.14,1.14-1.71,2.52-1.71,4.14c0,1.62,0.57,3,1.71,4.14c1.14,1.14,2.52,1.71,4.14,1.71
			c1.62,0,3-0.57,4.14-1.71C114.36,26.3,114.94,24.92,114.94,23.3z"/>
		<path class="st0" d="M123.43,11.59c0,0.4-0.14,0.74-0.43,1.03c-0.29,0.29-0.63,0.43-1.03,0.43c-0.4,0-0.74-0.14-1.03-0.43
			c-0.29-0.29-0.43-0.63-0.43-1.03c0-0.4,0.14-0.74,0.43-1.03c0.29-0.29,0.63-0.43,1.03-0.43c0.4,0,0.74,0.14,1.03,0.43
			C123.28,10.84,123.43,11.19,123.43,11.59z M120.79,16.27c0-0.32,0.11-0.6,0.34-0.83c0.23-0.23,0.51-0.34,0.83-0.34
			s0.6,0.11,0.83,0.34c0.23,0.23,0.34,0.51,0.34,0.83v14.06c0,0.32-0.11,0.6-0.34,0.83c-0.23,0.23-0.51,0.34-0.83,0.34
			s-0.6-0.11-0.83-0.34c-0.23-0.23-0.34-0.51-0.34-0.83V16.27z"/>
		<path class="st0" d="M140.71,29.04c-1.64,1.64-3.59,2.46-5.86,2.46c-2.26,0-4.2-0.8-5.8-2.4c-1.6-1.6-2.4-3.53-2.4-5.8
			c0-2.26,0.8-4.2,2.4-5.8c1.6-1.6,3.53-2.4,5.8-2.4c2.26,0,4.2,0.8,5.8,2.4c1.6,1.6,2.4,3.53,2.4,5.8v7.03
			c0,0.32-0.11,0.6-0.34,0.83c-0.23,0.23-0.51,0.34-0.83,0.34s-0.6-0.11-0.83-0.34c-0.23-0.23-0.34-0.51-0.34-0.83V29.04z
			 M134.85,17.44c-1.62,0-3,0.57-4.14,1.71c-1.14,1.14-1.71,2.52-1.71,4.14c0,1.62,0.57,3,1.71,4.14c1.14,1.14,2.52,1.71,4.14,1.71
			c1.62,0,3-0.57,4.14-1.71c1.14-1.14,1.71-2.52,1.71-4.14c0-1.62-0.57-3-1.71-4.14C137.85,18.01,136.47,17.44,134.85,17.44z"/>
		<path class="st0" d="M153.59,29.16c0.32,0,0.6,0.12,0.83,0.34c0.23,0.23,0.34,0.51,0.34,0.83s-0.11,0.6-0.34,0.83
			c-0.23,0.23-0.51,0.34-0.83,0.34c-3.9,0-5.86-1.95-5.86-5.86v-8.2h-1.17c-0.32,0-0.6-0.11-0.83-0.34
			c-0.23-0.23-0.34-0.51-0.34-0.83c0-0.32,0.11-0.6,0.34-0.83c0.23-0.23,0.51-0.34,0.83-0.34h1.17V9.24c0-0.32,0.11-0.6,0.34-0.83
			c0.23-0.23,0.51-0.34,0.83-0.34s0.6,0.11,0.83,0.34c0.23,0.23,0.34,0.51,0.34,0.83v5.86h2.36c0.32,0,0.6,0.11,0.83,0.34
			c0.23,0.23,0.34,0.51,0.34,0.83c0,0.32-0.11,0.6-0.34,0.83c-0.23,0.23-0.51,0.34-0.83,0.34h-2.36v8.2
			C150.08,27.99,151.25,29.16,153.59,29.16z"/>
		<path class="st0" d="M173.51,23.3c0,2.26-0.8,4.2-2.4,5.8c-1.6,1.6-3.53,2.4-5.8,2.4s-4.2-0.8-5.8-2.4c-1.6-1.6-2.4-3.53-2.4-5.8
			c0-2.26,0.8-4.2,2.4-5.8c1.6-1.6,3.53-2.4,5.8-2.4s4.2,0.8,5.8,2.4C172.71,19.1,173.51,21.04,173.51,23.3z M165.31,17.44
			c-1.62,0-3,0.57-4.14,1.71c-1.14,1.14-1.71,2.52-1.71,4.14c0,1.62,0.57,3,1.71,4.14c1.14,1.14,2.52,1.71,4.14,1.71
			c1.62,0,3-0.57,4.14-1.71c1.14-1.14,1.71-2.52,1.71-4.14c0-1.62-0.57-3-1.71-4.14C168.31,18.01,166.93,17.44,165.31,17.44z"/>
		<path class="st0" d="M192.25,23.3c0,2.26-0.8,4.2-2.4,5.8c-1.6,1.6-3.53,2.4-5.8,2.4c-2.26,0-4.2-0.8-5.8-2.4
			c-1.6-1.6-2.4-3.53-2.4-5.8c0-2.26,0.8-4.2,2.4-5.8c1.6-1.6,3.53-2.4,5.8-2.4c2.26,0,4.2,0.8,5.8,2.4
			C191.45,19.1,192.25,21.04,192.25,23.3z M184.05,17.44c-1.62,0-3,0.57-4.14,1.71c-1.14,1.14-1.71,2.52-1.71,4.14
			c0,1.62,0.57,3,1.71,4.14c1.14,1.14,2.52,1.71,4.14,1.71c1.62,0,3-0.57,4.14-1.71c1.14-1.14,1.71-2.52,1.71-4.14
			c0-1.62-0.57-3-1.71-4.14C187.05,18.01,185.67,17.44,184.05,17.44z"/>
		<path class="st0" d="M194.6,9.24c0-0.32,0.11-0.6,0.34-0.83c0.23-0.23,0.51-0.34,0.83-0.34s0.6,0.11,0.83,0.34
			c0.23,0.23,0.34,0.51,0.34,0.83v19.92h1.17c0.32,0,0.6,0.12,0.83,0.34c0.23,0.23,0.34,0.51,0.34,0.83s-0.11,0.6-0.34,0.83
			c-0.23,0.23-0.51,0.34-0.83,0.34h-2.34c-0.32,0-0.6-0.11-0.83-0.34c-0.23-0.23-0.34-0.51-0.34-0.83V9.24z"/>
	</g>
	<g>
		<path class="st0" d="M44.5,16.9c-0.4-1.5-0.95-2.94-1.63-4.3c-0.57-1.14-1.24-2.23-2-3.25c-0.19-0.25-0.37-0.5-0.57-0.74
			c-4.11-5.12-10.42-8.4-17.5-8.4c-7.45,0-14.04,3.63-18.12,9.21c-1.03,1.41-1.9,2.94-2.59,4.57c-1.12,2.67-1.74,5.6-1.74,8.67
			c0,12.3,9.89,22.28,22.15,22.44c0.1,0,0.2,0.01,0.3,0.01c1.4,0,2.76-0.13,4.08-0.38c10.45-1.92,18.37-11.07,18.37-22.07
			C45.25,20.67,44.99,18.74,44.5,16.9z M40.1,12.73c-0.31,0.99-0.69,1.98-1.15,2.95c-3.56,7.56-11.01,12.64-18.54,12.64
			c-1.94,0-3.81-0.34-5.57-1c-0.43-3.73,0.06-7.42,1.48-10.69C18.2,12.3,21.48,9.23,25.55,8c1.28-0.39,2.61-0.58,3.95-0.58
			c3.18,0,6.29,1.07,9.01,2.95C39.09,11.12,39.62,11.91,40.1,12.73z M22.8,2.7c3.49,0,6.78,0.9,9.64,2.49
			c-0.97-0.17-1.95-0.26-2.93-0.26c0,0,0,0,0,0c-1.56,0-3.13,0.22-4.67,0.69c-8.16,2.47-13.1,10.98-12.6,20.43
			c-4.16-2.54-6.77-6.92-7.47-11.92C7.97,7.38,14.85,2.7,22.8,2.7z M2.84,22.66c0-1.33,0.13-2.62,0.38-3.88
			c1.66,4.5,4.87,8.23,9.35,10.31c0.18,1.02,0.42,2.03,0.72,3.05c1.21,4,3.28,7.45,5.88,10.14C9.9,40.58,2.84,32.43,2.84,22.66z
			 M23.28,42.61c-3.43-2.59-6.17-6.5-7.59-11.18c-0.13-0.44-0.25-0.87-0.35-1.31c1.66,0.47,3.36,0.7,5.07,0.7
			c8.36,0,16.83-5.37,20.95-14.12c0.1-0.21,0.19-0.42,0.28-0.63c0.73,2.07,1.12,4.28,1.12,6.6C42.76,33.51,34.06,42.35,23.28,42.61z
			"/>
	</g>
</g>
</svg>
